:SAMPLES-PER-SECOND 24
:FULLY-SPECIFIED
:DEGREES
301
root  -1.05588 35.8906 15.6894 15.1711 76.1592 5.57617
RightUpLeg  -31.9478 -3.02812 -21.9664
RightLeg  42.0187 6.6593 6.33639
RightFoot  -10.1151 -0.332039 22.3727
RightToes  -1.74623e-010 0 -2.59999e-017
Spine  14.4254 -5.03372 -7.66717
Spine1  2.93118 -7.99527 8.7734
HEad  -31.9623 -31.1282 26.8959
LeftShoulder1  1.52413 -3.84252 -13.7825
LeftArm  9.4604 -14.197 -64.9225
LeftForeArm  63.2836 -77.0301 -45.2166
LeftHand  -0.163113 4.45375 19.9312
RightShoulder  3.81791 6.11188 33.7674
RightArm  16.2976 -32.2568 15.1543
RightForeArm  14.1355 40.7963 8.81205
RightHand  -1.57958 4.90517 -17.9741
LeftUpLeg  -23.6775 24.3694 14.5012
LeftLeg  45.5377 -1.16931 -0.5821
LeftFoot  -14.658 -0.657896 -25.7064
LeftToes  -6.27559e-011 -2.10356e-011 8.24929e-012
302
root  0.476032 39.8745 14.9851 8.91847 62.4189 -1.20929
RightUpLeg  -24.5212 -0.410832 -18.5043
RightLeg  17.085 9.55561 2.61919
RightFoot  13.3293 -4.59906 21.5662
RightToes  -1.74623e-010 0 -2.59999e-017
Spine  11.7503 -8.43021 -8.33494
Spine1  3.31281 -12.7546 15.6256
HEad  -29.0398 -40.1114 27.665
LeftShoulder1  1.0232 -3.66566 -6.67885
LeftArm  11.6628 -11.2681 -71.76
LeftForeArm  101.739 -80.9383 -82.7785
LeftHand  0.0681899 5.85925 18.9373
RightShoulder  2.70255 4.92011 25.9838
RightArm  16.8128 -42.3466 5.4739
RightForeArm  20.8282 55.4371 14.8944
RightHand  -1.34492 3.35424 -17.928
LeftUpLeg  -5.40963 19.4176 14.0402
LeftLeg  18.3451 19.0807 2.1171
LeftFoot  6.15954 3.37547 -22.6812
LeftToes  -6.27559e-011 -2.10356e-011 8.24929e-012
303
root  1.70535 43.4323 14.4648 8.47893 41.7354 -5.14142
RightUpLeg  -30.9454 -0.507679 -11.51
RightLeg  25.1126 13.4834 6.88727
RightFoot  20.763 -5.06774 17.9873
RightToes  -1.74623e-010 0 -2.59999e-017
Spine  10.0019 -8.95396 -5.96934
Spine1  3.83089 -13.6646 18.7151
HEad  -22.4368 -47.4569 28.2974
LeftShoulder1  1.17393 -4.21955 -7.59658
LeftArm  11.3582 -8.17796 -67.6132
LeftForeArm  64.5568 -77.4988 -48.1796
LeftHand  -0.0720419 4.9985 19.0234
RightShoulder  2.13142 4.25625 21.1946
RightArm  15.5598 -34.2282 2.29919
RightForeArm  23.927 63.4029 20.5963
RightHand  -0.97141 2.46704 -14.4751
LeftUpLeg  5.80718 5.82256 8.75385
LeftLeg  -4.03202 41.3831 -5.36366
LeftFoot  29.0721 6.28725 -17.5279
LeftToes  -6.27559e-011 -2.10356e-011 8.24929e-012
304
root  2.1077 46.4537 13.8857 11.998 22.0632 -7.36578
RightUpLeg  -43.8678 5.4535 -8.57324
RightLeg  61.6778 5.41242 10.2916
RightFoot  15.1743 -3.52284 15.3226
RightToes  -1.74623e-010 0 -2.59999e-017
Spine  11.1597 -7.12004 -5.31486
Spine1  2.27816 -11.5233 19.1039
HEad  -20.1485 -53.5438 31.8437
LeftShoulder1  1.50345 -3.76249 -13.7384
LeftArm  8.61207 -9.29599 -54.5696
LeftForeArm  34.4278 -64.7847 -20.7619
LeftHand  -0.184541 4.18395 16.935
RightShoulder  2.17023 4.55754 20.5939
RightArm  12.7619 -15.5482 8.29845
RightForeArm  24.5556 62.9497 20.0871
RightHand  -1.04154 3.75373 -13.4284
LeftUpLeg  -4.4039 12.2239 4.43811
LeftLeg  10.9342 24.1279 -5.01238
LeftFoot  29.6098 6.71639 -18.3717
LeftToes  -6.27559e-011 -2.10356e-011 8.24929e-012
305
root  2.59114 48.6808 12.828 18.6582 4.03397 -11.7932
RightUpLeg  -51.7955 6.17466 -8.91668
RightLeg  96.938 -0.713992 6.3678
RightFoot  13.0483 -1.82659 8.92006
RightToes  -1.74623e-010 0 -2.59999e-017
Spine  12.6817 -4.2145 0.867832
Spine1  0.81025 -6.57262 12.5621
HEad  -23.2802 -53.5465 36.0042
LeftShoulder1  1.8062 -3.38604 -19.7168
LeftArm  5.14201 -6.10293 -40.3287
LeftForeArm  27.7207 -55.6669 -14.0069
LeftHand  -0.120732 4.61173 16.6977
RightShoulder  2.41804 5.0272 22.1104
RightArm  12.1209 7.71958 20.2815
RightForeArm  24.0007 62.2592 19.4685
RightHand  -1.26699 4.37267 -15.2687
LeftUpLeg  -33.7319 47.0184 -15.454
LeftLeg  30.9712 -14.9653 -7.3303
LeftFoot  22.4599 4.25729 -14.4807
LeftToes  -6.27559e-011 -2.10356e-011 8.24929e-012
306
root  3.75654 51.1331 12.3674 27.883 -11.8898 -17.7668
RightUpLeg  -47.7568 3.79541 -19.1214
RightLeg  117.443 -1.5958 3.34581
RightFoot  18.8996 -0.848535 3.68364
RightToes  -1.74623e-010 0 -2.59999e-017
Spine  13.0297 0.434991 9.8741
Spine1  1.64416 0.0663217 3.18441
HEad  -28.0201 -51.12 40.4619
LeftShoulder1  2.1893 -3.43647 -25.379
LeftArm  3.90847 3.34816 -29.2839
LeftForeArm  25.9037 -54.5239 -13.5986
LeftHand  -0.0221554 5.30646 17.4306
RightShoulder  2.54206 5.28734 22.7316
RightArm  21.3393 28.5437 35.2965
RightForeArm  22.3508 58.9075 16.9454
RightHand  -1.3613 4.52783 -16.1165
LeftUpLeg  -55.7652 38.2637 -24.8047
LeftLeg  30.9591 -7.02988 -4.20825
LeftFoot  18.6278 4.26981 -16.332
LeftToes  -6.27559e-011 -2.10356e-011 8.24929e-012
307
root  3.99131 52.4273 12.6277 34.3105 -18.1428 -21.1243
RightUpLeg  -20.7793 6.44789 -33.7727
RightLeg  112.763 -2.477 6.70988
RightFoot  24.7247 -0.126937 0.928339
RightToes  -1.74623e-010 0 -2.59999e-017
Spine  9.97667 6.7042 13.5338
Spine1  4.28918 4.44541 1.87016
HEad  -33.0788 -53.8205 44.3035
LeftShoulder1  2.19795 -3.22573 -26.6005
LeftArm  8.75262 14.44 -23.3072
LeftForeArm  28.0059 -59.1848 -16.356
LeftHand  -0.0143358 5.38662 14.5257
RightShoulder  2.22835 5.0588 19.6108
RightArm  32.1682 36.438 48.6802
RightForeArm  24.7324 57.5385 15.2323
RightHand  -1.4921 5.01963 -16.8201
LeftUpLeg  -74.6589 34.6873 -31.0775
LeftLeg  34.3213 -5.91413 -3.95513
LeftFoot  16.0086 4.03279 -16.8714
LeftToes  -6.27559e-011 -2.10356e-011 8.24929e-012
